grf
version=1
nRows=7
nColumns=37
inDegrees=no
endheader
time	ground_force_1_vx	ground_force_1_vy	ground_force_1_vz	ground_force_1_px	ground_force_1_py	ground_force_1_pz	ground_moment_1_mx	ground_moment_1_my	ground_moment_1_mz	ground_force_2_vx	ground_force_2_vy	ground_force_2_vz	ground_force_2_px	ground_force_2_py	ground_force_2_pz	ground_moment_2_mx	ground_moment_2_my	ground_moment_2_mz	ground_force_3_vx	ground_force_3_vy	ground_force_3_vz	ground_force_3_px	ground_force_3_py	ground_force_3_pz	ground_moment_3_mx	ground_moment_3_my	ground_moment_3_mz	ground_force_4_vx	ground_force_4_vy	ground_force_4_vz	ground_force_4_px	ground_force_4_py	ground_force_4_pz	ground_moment_4_mx	ground_moment_4_my	ground_moment_4_mz
      0.00000000	      0.00000000	     -0.00000000	      0.00000000	      0.00000000	      0.00000000	      0.00000000	      0.00000000	      0.00000000	      0.00000000	      6.07663631	     15.13846684	   -343.25003052	   -327.91871736	  -1014.30010277	      0.00000000	      0.00000000	      0.00000000	   1782.10801757	     -4.75331976	    -16.61234242	   -282.43258667	   -270.15945465	   -804.83221538	      0.00000000	      0.00000000	     -0.00000000	  -2188.50361812	      0.00000000	     -0.00000000	      0.00000000	      0.00000000	      0.00000000	      0.00000000	      0.00000000	      0.00000000	      0.00000000
      0.01000000	      0.00000000	     -0.00000000	      0.00000000	      0.00000000	      0.00000000	      0.00000000	      0.00000000	      0.00000000	      0.00000000	      6.18250942	     15.35738945	   -343.08761597	   -327.00424566	  -1014.81348577	      0.00000000	      0.00000000	      0.00000000	   1693.32650739	     -4.69576075	    -16.58176381	   -282.81280518	   -270.08270123	   -802.60072711	      0.00000000	      0.00000000	     -0.00000000	  -2297.71906145	      0.00000000	     -0.00000000	      0.00000000	      0.00000000	      0.00000000	      0.00000000	      0.00000000	      0.00000000	      0.00000000
      0.02000000	      0.00000000	     -0.00000000	      0.00000000	      0.00000000	      0.00000000	      0.00000000	      0.00000000	      0.00000000	      0.00000000	      6.25804424	     15.54660702	   -342.57672119	   -327.72068942	  -1014.25038746	      0.00000000	     -0.00000000	      0.00000000	   1759.88123585	     -4.74421126	    -17.04608494	   -281.21374512	   -269.85657248	   -805.50958004	      0.00000000	      0.00000000	     -0.00000000	  -2266.35299136	      0.00000000	     -0.00000000	      0.00000000	      0.00000000	      0.00000000	      0.00000000	      0.00000000	      0.00000000	      0.00000000
      0.03000000	      0.00000000	     -0.00000000	      0.00000000	      0.00000000	      0.00000000	      0.00000000	      0.00000000	      0.00000000	      0.00000000	      6.34583616	     15.10106564	   -342.63162231	   -327.55515249	  -1014.99972211	      0.00000000	      0.00000000	      0.00000000	   1706.68243418	     -4.77642540	    -16.78560024	   -281.26910400	   -269.36800755	   -804.91706148	      0.00000000	      0.00000000	     -0.00000000	  -2282.18689776	      0.00000000	     -0.00000000	      0.00000000	      0.00000000	      0.00000000	      0.00000000	      0.00000000	      0.00000000	      0.00000000
      0.04000000	      0.00000000	     -0.00000000	      0.00000000	      0.00000000	      0.00000000	      0.00000000	      0.00000000	      0.00000000	      0.00000000	      6.02781820	     15.17750263	   -341.47418213	   -328.34722854	  -1013.08652776	      0.00000000	      0.00000000	      0.00000000	   1692.61031147	     -4.52425149	    -16.66910513	   -280.40847778	   -269.07293920	   -805.19984424	      0.00000000	      0.00000000	     -0.00000000	  -2334.51776536	      0.00000000	     -0.00000000	      0.00000000	      0.00000000	      0.00000000	      0.00000000	      0.00000000	      0.00000000	      0.00000000
      0.05000000	      0.00000000	     -0.00000000	      0.00000000	      0.00000000	      0.00000000	      0.00000000	      0.00000000	      0.00000000	      0.00000000	      6.48667860	     15.13956833	   -339.20437622	   -328.43850351	  -1012.25333393	      0.00000000	      0.00000000	      0.00000000	   1836.46908185	     -4.39792823	    -16.22433624	   -280.71789551	   -269.08238078	   -804.27849400	      0.00000000	      0.00000000	     -0.00000000	  -2439.38646467	      0.00000000	     -0.00000000	      0.00000000	      0.00000000	      0.00000000	      0.00000000	      0.00000000	      0.00000000	      0.00000000
      0.06000000	      0.00000000	     -0.00000000	      0.00000000	      0.00000000	      0.00000000	      0.00000000	      0.00000000	      0.00000000	      0.00000000	      6.12955904	     14.70651627	   -340.56826782	   -327.41914530	  -1013.76878720	      0.00000000	      0.00000000	      0.00000000	   1728.94593266	     -4.42444038	    -16.28872833	   -279.87121582	   -268.76142691	   -805.69744832	      0.00000000	     -0.00000000	     -0.00000000	  -2375.02768202	      0.00000000	     -0.00000000	      0.00000000	      0.00000000	      0.00000000	      0.00000000	      0.00000000	      0.00000000	      0.00000000
